<?xml version="1.0" standalone="no"?>
<!DOCTYPE svg PUBLIC "-//W3C//DTD SVG 20010904//EN"
 "http://www.w3.org/TR/2001/REC-SVG-20010904/DTD/svg10.dtd">
<svg version="1.0" xmlns="http://www.w3.org/2000/svg"
 width="720.000000pt" height="720.000000pt" viewBox="0 0 720.000000 720.000000"
 preserveAspectRatio="xMidYMid meet">
<metadata>
Created by potrace 1.14, written by Peter Selinger 2001-2017
</metadata>
<g transform="translate(0.000000,720.000000) scale(0.100000,-0.100000)"
fill="#000000" stroke="none">
<path d="M3367 7194 c-2 -2 -31 -6 -63 -8 -83 -6 -254 -30 -354 -50 -14 -3
-36 -7 -50 -10 -14 -3 -35 -7 -47 -10 -13 -4 -31 -8 -41 -10 -9 -2 -37 -9 -62
-16 -25 -7 -49 -13 -55 -14 -21 -4 -188 -58 -213 -68 -15 -6 -31 -12 -37 -13
-11 -1 -26 -8 -92 -36 -23 -11 -44 -19 -47 -19 -5 0 -135 -59 -196 -88 -19 -9
-47 -25 -62 -35 -16 -10 -28 -16 -28 -12 0 3 -17 -6 -37 -20 -21 -14 -41 -25
-46 -25 -4 0 -78 -46 -165 -103 -137 -90 -289 -205 -401 -302 -52 -45 -251
-245 -291 -292 -77 -91 -106 -128 -162 -201 -31 -42 -61 -81 -65 -87 -37 -46
-179 -277 -174 -284 1 -2 -2 -7 -7 -10 -10 -6 -81 -144 -140 -271 -47 -103
-133 -337 -158 -432 -1 -5 -2 -9 -4 -10 -1 -2 -3 -10 -5 -18 -1 -8 -11 -44
-20 -80 -19 -72 -24 -94 -31 -130 -2 -14 -7 -36 -10 -50 -8 -33 -12 -57 -18
-100 -3 -19 -7 -48 -10 -65 -24 -158 -30 -246 -30 -485 0 -204 6 -341 19 -410
3 -14 7 -43 10 -65 3 -22 7 -53 10 -70 16 -97 18 -107 29 -162 20 -100 96
-356 141 -473 59 -156 138 -327 215 -465 31 -55 164 -268 182 -290 4 -5 43
-55 85 -110 105 -136 144 -182 246 -287 31 -33 57 -64 57 -69 0 -5 5 -9 10 -9
6 0 31 -19 55 -43 24 -24 67 -63 95 -88 29 -24 58 -49 65 -56 7 -7 15 -9 19
-6 3 4 6 1 6 -5 0 -6 29 -32 65 -58 36 -26 65 -51 65 -56 0 -4 9 -8 19 -8 11
0 23 -9 26 -21 4 -11 9 -18 12 -15 5 5 112 -59 123 -73 3 -4 16 -12 30 -19 14
-7 39 -20 55 -31 17 -10 48 -28 70 -41 22 -12 55 -31 72 -42 18 -11 33 -16 33
-13 0 4 7 2 15 -5 14 -12 91 -51 165 -83 89 -39 133 -57 141 -57 5 0 28 -9 52
-19 58 -26 196 -72 230 -76 15 -2 33 -8 40 -12 6 -4 14 -8 17 -8 3 -1 32 -7
65 -15 33 -8 63 -13 68 -12 4 1 7 -2 7 -6 0 -4 8 -8 18 -9 31 -1 104 -13 112
-18 4 -3 27 -7 51 -10 24 -3 58 -7 74 -10 114 -16 216 -26 286 -29 24 -1 49
-5 56 -9 6 -4 14 -3 18 2 4 7 15 7 30 1 16 -6 25 -6 25 0 0 5 6 7 14 4 18 -7
116 -10 116 -4 0 8 55 4 68 -4 7 -4 12 -3 12 1 0 5 21 9 48 10 97 2 206 14
357 39 137 22 138 22 173 33 17 5 32 8 32 6 0 -3 11 0 25 5 14 5 36 12 48 14
89 16 368 108 472 156 11 5 43 19 70 31 117 50 309 151 383 200 24 16 47 29
53 29 5 0 9 5 9 10 0 6 4 10 10 10 24 0 261 178 400 299 135 119 220 208 399
416 37 43 110 143 157 215 27 41 54 80 59 86 6 6 19 28 30 49 11 22 28 48 38
59 9 11 17 24 17 29 0 6 13 32 30 58 16 27 28 49 25 49 -2 0 9 23 25 50 17 28
30 53 30 55 0 2 14 34 31 72 46 103 47 105 65 148 17 43 104 300 109 325 2 8
11 44 20 80 9 36 18 72 20 80 20 92 34 164 40 205 11 78 13 87 20 134 3 24 9
69 12 100 6 75 12 534 6 544 -2 4 -6 37 -8 73 -2 36 -6 82 -10 102 -3 20 -7
51 -9 67 -7 50 -29 174 -51 275 -10 48 -57 217 -80 290 -15 47 -27 87 -27 90
0 3 -3 10 -8 15 -4 6 -13 28 -20 50 -7 22 -26 69 -42 105 -16 36 -43 97 -61
135 -17 39 -40 84 -51 100 -12 17 -19 30 -16 30 9 0 -185 325 -222 370 -4 5
-42 55 -84 110 -126 164 -250 299 -420 455 -102 94 -343 280 -363 280 -5 0
-11 4 -13 8 -3 8 -147 99 -227 145 -68 38 -246 125 -311 152 -36 14 -79 33
-97 41 -17 8 -33 14 -36 14 -3 0 -18 5 -34 11 -15 6 -28 10 -28 9 0 -1 -18 6
-39 15 -22 9 -47 18 -55 20 -9 2 -35 10 -59 19 -23 8 -44 15 -47 16 -3 0 -6 0
-7 1 -2 0 -10 2 -18 4 -8 2 -43 11 -77 20 -35 9 -72 18 -83 21 -11 2 -30 6
-42 9 -13 3 -36 8 -53 10 -16 3 -37 8 -45 10 -8 2 -35 7 -60 11 -25 3 -56 8
-70 10 -14 2 -50 6 -80 9 -30 4 -71 9 -90 11 -46 7 -537 14 -543 8z"/>
</g>
</svg>
