<svg width="104" height="136" viewBox="0 0 104 136" fill="none" xmlns="http://www.w3.org/2000/svg">
<path d="M98.38 135.008L5.1439 134.536C2.5623 134.554 0.508004 132.439 0.529804 129.855L1.2637 5.6199C1.2855 3.0357 3.3587 0.968202 5.935 0.987902L99.134 1.4547C101.71 1.4743 103.77 3.5518 103.748 6.136L103.014 130.371C103.035 132.923 100.957 135.028 98.38 135.008Z" fill="white"/>
<path d="M50.5252 36.5863L12.13 36.4028C10.8073 36.3691 9.7801 35.3116 9.7724 34.0169C9.8072 32.6902 10.8624 31.659 12.1532 31.6501L50.5483 31.8337C51.8339 31.8622 52.8982 32.9249 52.9059 34.2195C52.9083 35.5515 51.8107 36.6148 50.5252 36.5863Z" fill="#EAEAEA"/>
<path d="M88.738 36.312L68.7011 36.287C68.0159 36.2594 67.3828 35.5652 67.3828 34.1999C67.3828 32.1511 68.9297 31.6675 69.6062 31.6538L89.643 31.6788C90.31 31.7014 90.838 32.9374 90.599 34.1995C90.599 35.5652 89.405 36.3346 88.738 36.312Z" fill="#EAEAEA"/>
<path d="M75.7317 21.6477L27.8092 21.7002C26.1585 21.6663 24.8844 20.2983 24.8846 18.6139C24.9381 16.8874 26.263 15.5377 27.8742 15.5164L75.7966 15.464C77.401 15.4913 78.7214 16.8658 78.7212 18.5503C78.7141 20.2833 77.336 21.675 75.7317 21.6477Z" fill="#F9E288"/>
<path d="M89.113 75.7208L64.024 75.581C62.7384 75.5525 61.6741 74.4898 61.6664 73.1952C61.7011 71.8684 62.7563 70.8372 64.0471 70.8284L89.136 70.9682C90.421 70.9967 91.486 72.0594 91.493 73.354C91.501 74.6487 90.403 75.712 89.113 75.7208Z" fill="#FEF3C7"/>
<path d="M51.8908 114.427L13.4956 114.244C12.2101 114.215 11.1457 113.152 11.138 111.858C11.1675 110.568 12.228 109.5 13.5188 109.491L51.9139 109.675C53.1995 109.703 54.2638 110.766 54.2715 112.06C54.2739 113.392 53.2187 114.424 51.8908 114.427Z" fill="#F9E288"/>
<path d="M90.478 113.958L65.3896 113.818C64.104 113.79 63.0397 112.727 63.032 111.432C63.0615 110.143 64.1272 109.037 65.4127 109.066L90.501 109.206C91.787 109.234 92.851 110.297 92.859 111.591C92.867 112.886 91.801 113.992 90.478 113.958Z" fill="#FEF3C7"/>
<path d="M89.64 48.8428L13.6157 48.701C11.0656 48.6738 9.8959 47.7702 9.6118 46.4662C9.6118 45.7832 10.1218 43.9245 12.6745 43.9141L88.699 44.0559C91.249 44.0831 92.631 44.4792 92.915 45.7832C93.125 47.082 92.193 48.8324 89.64 48.8428Z" fill="#EAEAEA"/>
<path d="M89.64 57.0366L13.6157 56.8949C11.0656 56.8676 9.8959 55.964 9.6118 54.66C9.6118 53.9771 10.1218 52.1183 12.6745 52.108L88.699 52.2497C91.249 52.277 92.631 52.6731 92.915 53.9771C93.125 55.2758 92.193 57.0263 89.64 57.0366Z" fill="#EAEAEA"/>
<path d="M91.006 85.7149L14.9813 85.5731C12.4312 85.5459 11.2615 84.6423 10.9774 83.3383C10.9774 82.6553 11.4874 80.7965 14.0401 80.7862L90.065 80.9279C92.615 80.9552 93.997 81.3513 94.281 82.6553C94.49 83.9541 93.558 85.7045 91.006 85.7149Z" fill="#EAEAEA"/>
<path d="M91.006 93.909L14.9813 93.767C12.4312 93.74 11.2615 92.836 10.9774 91.532C10.9774 90.849 11.4874 88.99 14.0401 88.98L90.065 89.122C92.615 89.149 93.997 89.545 94.281 90.849C94.49 92.148 93.558 93.898 91.006 93.909Z" fill="#EAEAEA"/>
<path d="M91.006 102.103L14.9813 101.961C12.4312 101.934 11.2615 101.03 10.9774 99.726C10.9774 99.043 11.4874 97.184 14.0401 97.174L90.065 97.316C92.615 97.343 93.997 97.739 94.281 99.043C94.49 100.342 93.558 102.092 91.006 102.103Z" fill="#EAEAEA"/>
<path d="M91.006 123.953L14.9813 123.811C12.4312 123.784 11.2615 122.88 10.9774 121.576C10.9774 120.893 11.4874 119.034 14.0401 119.024L90.065 119.166C92.615 119.193 93.997 119.589 94.281 120.893C94.49 122.192 93.558 123.942 91.006 123.953Z" fill="#EAEAEA"/>
<path d="M37.2185 74.3551L12.1299 74.2153C10.8444 74.1868 9.78 73.1241 9.7723 71.8294C9.8019 70.54 10.8623 69.4715 12.1531 69.4627L37.2417 69.6025C38.5272 69.631 39.5916 70.6936 39.5993 71.9883C39.5698 73.2778 38.5093 74.3463 37.2185 74.3551Z" fill="#F9E288"/>
</svg>
